<svg xmlns="http://www.w3.org/2000/svg" width="100%" height="100%" viewBox="0 0 256 256"><path fill="#594559" d="M96,0 h32 v32 h-32Z M128,0 h32 v32 h-32Z M192,0 h32 v32 h-32Z"></path><path fill="#b35cf8" d="M0,32 h32 v32 h-32Z M32,32 h32 v32 h-32Z M64,32 h32 v32 h-32Z M160,32 h32 v32 h-32Z M224,32 h32 v32 h-32Z"></path><path fill="#71e257" d="M96,64 h32 v32 h-32Z M128,64 h32 v32 h-32Z M192,64 h32 v32 h-32Z"></path><path fill="#376598" d="M0,96 h32 v32 h-32Z M32,96 h32 v32 h-32Z M64,96 h32 v32 h-32Z M160,96 h32 v32 h-32Z M224,96 h32 v32 h-32Z"></path><path fill="#344501" d="M96,128 h32 v32 h-32Z M128,128 h32 v32 h-32Z M192,128 h32 v32 h-32Z"></path><path fill="#e73536" d="M0,160 h32 v32 h-32Z M32,160 h32 v32 h-32Z M64,160 h32 v32 h-32Z M160,160 h32 v32 h-32Z M224,160 h32 v32 h-32Z"></path><path fill="#b38d27" d="M96,192 h32 v32 h-32Z M128,192 h32 v32 h-32Z M192,192 h32 v32 h-32Z"></path><path fill="#70e700" d="M96,224 h32 v32 h-32Z M128,224 h32 v32 h-32Z M192,224 h32 v32 h-32Z"></path></svg>